# xmcd
#
# Track frame offsets: 
#        150
#        14709
#        30275
#        42120
#        55737
#
# Disc length: 1000 seconds
#
# Revision: 0
# Processed by: cddbd v1.5.2PL0 Copyright (c) Steve Scherf et al.
# Submitted via: ExactAudioCopy v1.0b2
#
DISCID=3303e605
DTITLE=Dzieci z Brodą - Granie i śpiewanie
DYEAR=1900
DGENRE=Christian Children's Music
TTITLE0=Granie i śpiewanie
TTITLE1=Pełna Chata
TTITLE2=Kto jest wolny
TTITLE3=Arka Noego
TTITLE4=Stworzenie
EXTD=
EXTT0=
EXTT1=
EXTT2=
EXTT3=
EXTT4=
PLAYORDER=
